# xmcd
# 
# Track frame offsets:
#     183
#     10090
#     18825
#     29853
#     40470
#     50770
#     61918
#     75975
#     86310
#     97985
#     110475
#     121988
#     132898
#     144240
#     155575
#     168233
#     179443
#     189248
#     200025
#     212218
#     223388
#     234178
#     244855
#     258178
#     271035
#     284028
#     294360
#     306070
#     316573
# 
# Disc length: 4367
# 
# Revision: 3
# Processed by: cddbd v1.5.2PL0 Copyright (c) Steve Scherf et al.
# Submitted via: fre:ac v1.0.17
# 
DISCID=95110d1d
DTITLE=Werly Fairburn - Everybody's Rockin'
DYEAR=1993
DGENRE=Country
TTITLE0=I'm A Fool About Your Love
TTITLE1=Everybody's Rockin'
TTITLE2=All The Time
TTITLE3=My Heart's On Fire
TTITLE4=Speak To Me Baby
TTITLE5=Telephone Baby
TTITLE6=No Blues Tomorrow
TTITLE7=I'm Jealous
TTITLE8=I Guess I'm Crazy
TTITLE9=That Sweet Love Of Mine
TTITLE10=Nothin' But Lovin'
TTITLE11=Love Spelled Backwards Is Evol
TTITLE12=Broken Hearted Me
TTITLE13=Stay Close To Me
TTITLE14=It's Heaven
TTITLE15=Old Mem'ries Come Back
TTITLE16=Good Deal, Lucille
TTITLE17=Baby He's A Wolf
TTITLE18=Won't It Be Nice
TTITLE19=A Little Bit Of Nothing
TTITLE20=Prison Cell Of Love
TTITLE21=Spiteful Heart
TTITLE22=It's A Cold Weary World
TTITLE23=I Feel Like Cryin'
TTITLE24=Camping With Marie
TTITLE25=Let's Live It Over
TTITLE26=Doggone That Moon
TTITLE27=Black Widow Spider Woman
TTITLE28=You Are My Sunshine
EXTD=
EXTT0=
EXTT1=
EXTT2=
EXTT3=
EXTT4=
EXTT5=
EXTT6=
EXTT7=
EXTT8=
EXTT9=
EXTT10=
EXTT11=
EXTT12=
EXTT13=
EXTT14=
EXTT15=
EXTT16=
EXTT17=
EXTT18=
EXTT19=
EXTT20=
EXTT21=
EXTT22=
EXTT23=
EXTT24=
EXTT25=
EXTT26=
EXTT27=
EXTT28=
PLAYORDER=
